<?xml version="1.0" standalone="no"?>
<!DOCTYPE svg PUBLIC "-//W3C//DTD SVG 20010904//EN"
 "http://www.w3.org/TR/2001/REC-SVG-20010904/DTD/svg10.dtd">
<svg version="1.0" xmlns="http://www.w3.org/2000/svg"
 width="200.000000pt" height="200.000000pt" viewBox="0 0 200.000000 200.000000"
 preserveAspectRatio="xMidYMid meet">

<g transform="translate(0.000000,200.000000) scale(0.100000,-0.100000)"
fill="#000000" stroke="none">
<path d="M763 1789 c-75 -14 -130 -54 -152 -111 -7 -18 -18 -28 -31 -28 -29 0
-59 -16 -98 -54 -46 -43 -64 -81 -71 -150 l-6 -58 -49 -19 c-58 -22 -94 -52
-112 -96 -18 -42 -18 -81 1 -155 l16 -60 -36 -40 c-45 -49 -65 -95 -65 -148 0
-48 31 -114 71 -151 26 -24 27 -29 18 -69 -11 -47 0 -121 25 -168 41 -77 136
-131 232 -132 54 0 69 -5 114 -35 53 -35 106 -55 151 -55 43 0 124 28 163 57
l38 28 1 110 c2 103 3 110 22 110 19 0 20 -8 23 -109 3 -122 1 -118 85 -161
91 -49 178 -42 272 19 43 28 62 34 127 38 91 6 153 37 198 100 39 54 53 109
47 185 -5 61 -4 63 33 101 76 81 72 196 -10 280 l-39 41 14 42 c20 55 19 143
-1 185 -20 41 -61 72 -116 89 l-41 12 -2 54 c-2 56 -22 107 -59 147 -25 28
-87 62 -114 62 -12 0 -22 12 -31 35 -22 62 -99 106 -186 107 -60 1 -116 -21
-150 -58 -24 -26 -25 -31 -25 -171 0 -144 0 -144 -22 -141 -23 3 -23 6 -24
146 -1 124 -4 145 -20 163 -42 47 -120 70 -191 58z m125 -28 c58 -29 74 -52
70 -101 l-3 -43 -72 -26 c-68 -25 -98 -41 -77 -41 6 0 39 11 74 25 35 14 67
25 72 25 4 0 8 -40 8 -90 l0 -90 -90 0 c-89 0 -90 0 -90 24 0 14 -5 28 -11 32
-8 4 -9 -3 -4 -25 6 -30 6 -31 -29 -31 l-36 0 0 -68 c0 -37 -4 -72 -9 -78 -6
-5 -4 -16 4 -27 12 -16 28 -19 109 -20 l96 0 0 -51 -1 -51 -21 40 c-24 47 -26
50 -33 43 -3 -3 8 -29 25 -57 26 -45 40 -101 25 -101 -18 0 -100 62 -157 118
-38 37 -68 62 -68 56 0 -5 20 -30 45 -54 25 -24 45 -51 45 -60 0 -21 -43 -140
-51 -140 -4 0 -9 10 -13 23 -3 12 -31 50 -62 85 l-57 64 16 34 c9 19 13 34 8
34 -5 0 -16 -18 -25 -40 -10 -26 -29 -48 -51 -62 -38 -22 -42 -38 -5 -18 21
11 22 11 16 -14 -5 -22 2 -38 41 -88 26 -34 51 -66 55 -72 4 -6 9 -8 13 -5 3
3 -19 37 -49 74 -30 38 -53 72 -51 75 3 4 9 20 16 36 l11 29 54 -60 c30 -33
59 -76 65 -95 6 -19 16 -48 24 -65 7 -16 18 -42 24 -57 10 -27 13 -28 86 -28
l75 0 0 -60 c0 -58 -1 -60 -27 -61 l-28 -2 28 -4 c26 -4 27 -7 27 -64 0 -59 0
-59 30 -59 l30 0 0 -110 0 -110 -46 -30 c-26 -16 -50 -27 -55 -25 -4 3 -29 35
-55 70 -26 36 -52 65 -57 65 -5 0 2 -16 17 -35 14 -19 38 -51 52 -70 15 -20
24 -38 21 -41 -3 -3 -30 -5 -60 -5 -60 0 -113 18 -165 58 -29 22 -46 26 -106
28 -51 1 -83 8 -114 24 l-43 22 22 35 c12 19 19 37 16 40 -3 3 -13 -8 -23 -25
-22 -37 -24 -37 -52 -8 -44 47 -65 151 -46 225 10 35 26 26 69 -38 22 -33 44
-60 48 -60 10 0 3 12 -40 72 l-34 47 33 4 33 4 -36 1 c-30 2 -40 9 -68 49
l-33 46 27 61 c72 165 110 231 129 228 17 -3 18 -1 8 11 -10 12 -1 35 52 126
84 143 88 151 79 151 -4 0 -39 -54 -77 -120 -38 -66 -72 -123 -77 -126 -5 -3
-36 19 -69 48 -52 45 -60 57 -55 78 10 39 57 81 115 100 l53 18 1 59 c2 59 27
122 53 130 6 2 19 -16 28 -42 10 -25 21 -45 26 -45 9 0 -1 32 -26 79 -14 28
-14 31 12 50 14 12 43 24 65 27 27 5 38 11 38 24 0 16 39 74 40 59 0 -4 -18
-55 -40 -114 -23 -59 -39 -112 -37 -118 2 -6 23 42 47 106 24 65 46 120 50
122 3 2 17 -28 30 -68 13 -40 25 -67 27 -61 2 6 -7 46 -21 88 l-24 78 31 13
c46 20 121 18 165 -4z m373 7 c22 -6 39 -16 39 -23 0 -6 -11 -45 -25 -85 -27
-81 -29 -89 -16 -74 5 5 16 34 26 64 10 30 21 59 25 63 4 5 27 -44 50 -108 24
-64 47 -118 52 -121 12 -8 11 -5 -37 122 -24 65 -43 120 -40 122 5 6 45 -60
45 -75 0 -7 9 -13 20 -13 25 0 100 -37 100 -49 0 -5 -9 -30 -21 -56 -11 -25
-18 -49 -15 -52 3 -4 15 17 27 45 12 29 26 49 30 46 25 -15 49 -87 49 -144 0
-53 2 -60 20 -60 33 0 109 -40 129 -69 36 -51 34 -62 -28 -115 -31 -27 -61
-51 -67 -53 -5 -2 -43 53 -83 122 -40 69 -76 124 -78 121 -3 -3 28 -63 70
-133 59 -102 73 -131 63 -142 -9 -12 -8 -14 6 -8 16 6 52 -58 133 -239 l23
-50 -34 -47 c-28 -38 -40 -47 -67 -48 -32 -1 -32 -1 -4 -8 l27 -6 -36 -53
c-19 -30 -33 -56 -31 -59 3 -2 24 23 47 57 23 34 47 59 53 57 6 -2 16 -23 20
-48 12 -59 -6 -137 -44 -189 l-31 -42 -24 38 c-13 22 -24 33 -24 26 0 -7 7
-24 16 -37 13 -20 14 -28 4 -40 -19 -23 -117 -48 -163 -42 -33 5 -47 0 -86
-27 -51 -36 -93 -54 -131 -57 -54 -3 -90 1 -90 12 0 6 21 37 46 70 25 33 44
63 41 65 -3 3 -29 -26 -58 -64 l-52 -71 -36 19 c-67 34 -72 46 -69 156 l3 99
48 3 47 3 0 60 c0 39 4 59 12 59 9 0 9 3 0 12 -7 7 -12 36 -12 65 l0 53 53 0
c55 0 77 12 77 41 0 9 9 28 20 41 10 14 17 28 14 31 -11 10 27 79 72 132 27
30 51 55 55 55 4 0 13 -16 19 -34 11 -34 9 -37 -41 -101 -28 -36 -49 -68 -46
-71 2 -3 30 27 61 67 46 60 54 75 45 91 -13 25 -4 35 16 18 9 -7 18 -10 22 -7
3 3 -10 15 -29 27 -24 14 -39 33 -48 60 -7 22 -17 40 -22 40 -11 0 -10 -7 6
-39 14 -26 13 -29 -38 -87 -29 -32 -60 -72 -68 -88 l-15 -29 -28 72 -27 72 53
59 c37 40 60 57 73 55 11 -2 28 0 38 6 37 20 10 77 -32 66 -18 -5 -20 0 -20
59 l0 64 -58 0 -59 0 4 33 3 32 -10 -32 -11 -33 -89 0 -90 0 0 90 c0 52 4 90
10 90 5 0 40 -11 76 -25 37 -14 69 -23 72 -20 5 4 -4 8 -105 47 -52 19 -53 20
-53 59 0 88 116 142 231 107z m14 -589 c-47 -48 -126 -109 -140 -109 -9 0 -1
100 10 124 6 14 5 17 -3 12 -7 -4 -12 -2 -12 6 0 10 25 14 97 16 l98 2 -50
-51z m458 -71 l-19 -54 42 -42 c50 -50 68 -97 62 -164 -6 -53 -49 -120 -83
-127 -17 -3 -18 -1 -3 20 44 69 46 54 -32 219 l-72 153 59 52 58 53 3 -28 c2
-15 -5 -52 -15 -82z m-1420 52 l55 -50 -50 -102 c-28 -57 -61 -126 -73 -155
l-23 -52 24 -32 c28 -38 30 -49 9 -49 -19 0 -71 80 -80 122 -11 49 14 117 62
167 41 42 43 47 33 76 -16 43 -28 125 -19 125 4 0 32 -22 62 -50z m528 -96
l59 -35 0 -100 0 -99 -29 0 c-15 0 -48 3 -73 6 -42 6 -45 8 -62 56 -17 49 -17
49 11 128 15 44 30 80 32 80 2 0 30 -16 62 -36z m395 -11 c9 -27 23 -62 30
-80 11 -27 10 -39 -6 -80 -16 -44 -21 -49 -60 -56 -68 -14 -70 -11 -70 106 l0
104 38 26 c20 14 40 26 44 26 3 1 14 -20 24 -46z"/>
<path d="M720 1551 c-13 -25 -4 -48 21 -56 38 -12 65 35 37 63 -18 18 -46 14
-58 -7z"/>
<path d="M652 1483 c-24 -14 -41 -28 -38 -30 6 -7 86 39 86 49 0 11 1 11 -48
-19z"/>
<path d="M530 1455 c-10 -12 -10 -21 -1 -41 13 -29 47 -30 65 -1 23 37 -36 76
-64 42z"/>
<path d="M582 1350 c8 -25 28 -51 28 -37 0 15 -24 67 -30 67 -5 0 -4 -14 2
-30z"/>
<path d="M603 1293 c-18 -7 -16 -48 3 -64 31 -26 70 25 44 56 -13 15 -25 17
-47 8z"/>
<path d="M414 1064 c-9 -35 18 -59 48 -43 30 16 21 63 -14 67 -23 3 -29 -2
-34 -24z"/>
<path d="M450 995 c0 -4 7 -33 15 -65 14 -56 14 -62 -6 -115 -27 -74 -18 -82
11 -10 21 51 21 60 10 120 -7 36 -16 68 -21 71 -5 3 -9 2 -9 -1z"/>
<path d="M652 898 c-32 -32 0 -78 42 -62 30 11 14 74 -19 74 -6 0 -16 -5 -23
-12z"/>
<path d="M550 790 c-41 -27 -76 -54 -78 -60 -2 -5 33 13 77 41 45 29 81 56 81
60 0 12 6 15 -80 -41z"/>
<path d="M710 821 c0 -16 40 -74 47 -67 3 2 -7 22 -21 43 -14 20 -26 32 -26
24z"/>
<path d="M766 731 c-33 -36 18 -83 52 -49 18 18 14 46 -7 58 -25 13 -25 13
-45 -9z"/>
<path d="M394 716 c-12 -31 0 -51 31 -51 27 0 30 3 30 30 0 25 -4 30 -28 33
-17 2 -29 -2 -33 -12z"/>
<path d="M470 661 c0 -11 164 -140 189 -148 22 -8 12 1 -96 85 -51 40 -93 68
-93 63z"/>
<path d="M765 639 c-25 -69 -34 -103 -30 -107 2 -3 7 1 10 9 25 69 34 103 30
107 -2 3 -7 -1 -10 -9z"/>
<path d="M380 550 c-15 -28 4 -52 39 -48 22 2 26 8 26 33 0 25 -4 31 -27 33
-19 2 -30 -3 -38 -18z"/>
<path d="M473 524 c7 -7 153 -43 176 -44 33 0 -3 13 -81 31 -91 20 -104 22
-95 13z"/>
<path d="M675 490 c-4 -12 -1 -27 5 -35 27 -33 78 -5 65 35 -4 14 -15 20 -35
20 -20 0 -31 -6 -35 -20z"/>
<path d="M1223 1563 c-22 -8 -16 -61 7 -68 39 -12 66 35 38 63 -13 13 -24 14
-45 5z"/>
<path d="M1290 1505 c0 -8 82 -57 87 -51 3 2 -13 16 -36 30 -41 26 -51 30 -51
21z"/>
<path d="M1413 1463 c-18 -7 -16 -48 3 -64 31 -26 70 25 44 56 -13 15 -25 17
-47 8z"/>
<path d="M1401 1357 c-16 -41 -13 -57 5 -24 8 16 13 34 11 40 -3 7 -10 -1 -16
-16z"/>
<path d="M1522 1078 c-18 -18 -14 -46 7 -58 25 -13 48 -4 56 21 12 38 -35 65
-63 37z"/>
<path d="M1517 934 c-14 -64 -14 -70 6 -123 23 -63 25 -66 32 -59 3 3 -5 28
-17 57 -20 49 -20 57 -8 117 17 87 6 93 -13 8z"/>
<path d="M1296 897 c-36 -26 4 -84 42 -61 23 15 26 38 7 58 -20 19 -26 20 -49
3z"/>
<path d="M1360 833 c0 -4 24 -23 53 -40 28 -18 67 -42 85 -54 17 -11 32 -17
32 -12 0 4 -28 26 -62 47 -35 21 -73 46 -85 54 -13 8 -23 10 -23 5z"/>
<path d="M1263 803 c-30 -43 -35 -53 -26 -53 10 0 56 70 50 77 -3 2 -14 -8
-24 -24z"/>
<path d="M1176 731 c-33 -36 18 -83 52 -49 18 18 14 46 -7 58 -25 13 -25 13
-45 -9z"/>
<path d="M1539 714 c-19 -23 1 -49 37 -49 20 0 30 6 32 18 8 40 -43 63 -69 31z"/>
<path d="M1421 589 c-51 -39 -90 -73 -87 -76 3 -3 45 25 93 62 109 84 110 85
96 85 -6 0 -52 -32 -102 -71z"/>
<path d="M1232 590 c11 -33 24 -60 28 -60 5 0 0 27 -12 60 -11 33 -24 60 -28
60 -5 0 0 -27 12 -60z"/>
<path d="M1551 552 c-14 -27 8 -55 40 -50 19 2 24 9 24 33 0 25 -4 31 -27 33
-18 2 -30 -3 -37 -16z"/>
<path d="M1422 510 c-64 -15 -103 -30 -76 -30 20 1 176 39 181 44 10 10 -28 5
-105 -14z"/>
<path d="M1254 496 c-12 -31 0 -51 31 -51 27 0 30 3 30 30 0 25 -4 30 -28 33
-17 2 -29 -2 -33 -12z"/>
</g>
</svg>
